<?xml version="1.0" encoding="UTF-8"?>
<svg xmlns="http://www.w3.org/2000/svg" viewBox="0 0 369.66666666666663 83.33333333333334">
    <g id="SvgjsG3629"
       transform="matrix(-1.436781644821167, 0, 0, 1.436781644821167, 87.64367675781251, -4.310344696044921)"
       fill="#232931">
        <g xmlns="http://www.w3.org/2000/svg">
            <path d="M9,19v34h3V42.851c0-3.279,2.327-6.157,5.533-6.845l4.773-1.023l-2.867-5.254C17.844,26.802,17,23.493,17,20.16   c0-0.388,0.014-0.775,0.036-1.16H9z"></path>
            <path d="M36.121,20c0.3,0,0.581-0.117,0.793-0.328c0.581-0.581,0.78-1.426,0.521-2.205l-0.019-0.057L35,18.618v0.261   C35,19.497,35.503,20,36.121,20z"></path>
            <path d="M24.346,34.546L26,34.191V33c-1.103,0-2-0.897-2-2v-4.456c-1.962-2.075-3.024-4.771-3-7.638   c0.048-5.835,4.83-10.726,10.659-10.901c3.008-0.092,5.846,1.01,8,3.099C41.813,13.195,43,15.999,43,19   c0,2.831-1.062,5.494-3,7.544V31c0,1.103-0.897,2-2,2v1.191l1.654,0.354l3.15-5.775C44.241,26.137,45,23.159,45,20.16   c0-6.027-2.994-11.62-8.008-14.963l-1.883-1.255C34.186,3.326,33.11,3,32,3s-2.186,0.326-3.109,0.941l-1.883,1.255   C21.994,8.54,19,14.133,19,20.159c0,3,0.759,5.978,2.196,8.611L24.346,34.546z"></path>
            <path d="M26,57h12c0.551,0,1-0.449,1-1v-1H25v1C25,56.551,25.449,57,26,57z"></path>
            <path d="M50,53V42.851c0-2.342-1.662-4.398-3.952-4.889l-5.352-1.147C39.971,38.1,37.28,42.339,33,42.931v1.253   c1.161,0.414,2,1.514,2,2.816v2c0,1.302-0.839,2.402-2,2.816V53h11V42h2v11H50z"></path>
            <path d="M31,53v-1.184c-1.161-0.414-2-1.514-2-2.816v-2c0-1.302,0.839-2.402,2-2.816V42.93c-4.271-0.591-6.965-4.821-7.696-6.115   l-5.352,1.147C15.662,38.453,14,40.508,14,42.851V53h4V42h2v11H31z"></path>
            <path d="M28,31v-5h2v5h4v-5h2v5h2v-5.284l0.3-0.294C40.041,23.713,41,21.433,41,19c0-2.456-0.971-4.75-2.733-6.46   c-1.695-1.644-3.91-2.54-6.265-2.54c-0.094,0-0.188,0.001-0.282,0.004c-4.769,0.144-8.68,4.145-8.72,8.919   c-0.021,2.462,0.938,4.77,2.7,6.499l0.3,0.294V31H28z M33,17.382l5.584-2.792l0.748,2.245c0.501,1.502,0.116,3.131-1.004,4.251   C37.739,21.675,36.955,22,36.121,22C34.4,22,33,20.6,33,18.879V17.382z M25.672,21.086c-1.12-1.12-1.505-2.75-1.004-4.252   l0.748-2.244L31,17.382v1.497C31,20.6,29.6,22,27.879,22C27.045,22,26.261,21.675,25.672,21.086z"></path>
            <path d="M31,40.892v-1.956c-2.632-0.315-3.957-1.826-4.545-2.796l-1.079,0.231C26.254,37.747,28.251,40.354,31,40.892z"></path>
            <path d="M29,18.879v-0.261l-2.416-1.208l-0.019,0.056c-0.26,0.78-0.061,1.625,0.521,2.206C27.298,19.883,27.579,20,27.879,20   C28.497,20,29,19.497,29,18.879z"></path>
            <path d="M31,47v2c0,0.551,0.449,1,1,1s1-0.449,1-1v-2c0-0.551-0.449-1-1-1S31,46.449,31,47z"></path>
            <path d="M38.625,36.371l-1.08-0.231c-0.587,0.971-1.913,2.481-4.545,2.796v1.956C35.758,40.352,37.758,37.731,38.625,36.371z"></path>
            <path d="M36,34.806V33h-8v1.804C28.228,35.297,29.215,37,32,37C34.808,37,35.783,35.282,36,34.806z"></path>
            <path d="M55,17c1.103,0,2,0.897,2,2v34h2V18c0-1.654-1.346-3-3-3h-9.68c0.175,0.656,0.314,1.324,0.422,2H55z"></path>
            <path d="M55,53V19h-8.036C46.986,19.385,47,19.771,47,20.159c0,3.333-0.844,6.643-2.44,9.569l-2.866,5.255l4.773,1.023   C49.673,36.693,52,39.572,52,42.851V53H55z"></path>
            <path d="M5,53h2V19c0-1.103,0.897-2,2-2h8.259c0.108-0.676,0.247-1.344,0.422-2H8c-1.654,0-3,1.346-3,3V53z"></path>
            <path d="M41,56c0,1.654-1.346,3-3,3H26c-1.654,0-3-1.346-3-3v-1H3v3c0,1.654,1.346,3,3,3h52c1.654,0,3-1.346,3-3v-3H41V56z"></path>
            <rect x="3" y="3" width="2" height="2"></rect>
            <rect x="7" y="3" width="2" height="2"></rect>
            <rect x="11" y="3" width="2" height="2"></rect>
            <rect x="15" y="3" width="2" height="2"></rect>
            <rect x="3" y="7" width="2" height="2"></rect>
            <rect x="7" y="7" width="2" height="2"></rect>
            <rect x="11" y="7" width="2" height="2"></rect>
            <rect x="3" y="11" width="2" height="2"></rect>
            <rect x="7" y="11" width="2" height="2"></rect>
            <rect x="11" y="11" width="2" height="2"></rect>
            <rect x="15" y="7" width="2" height="2"></rect>
            <rect x="59" y="3" width="2" height="2"></rect>
            <rect x="55" y="3" width="2" height="2"></rect>
            <rect x="51" y="3" width="2" height="2"></rect>
            <rect x="47" y="3" width="2" height="2"></rect>
            <rect x="43" y="3" width="2" height="2"></rect>
            <rect x="59" y="7" width="2" height="2"></rect>
            <rect x="55" y="7" width="2" height="2"></rect>
            <rect x="51" y="7" width="2" height="2"></rect>
            <rect x="59" y="11" width="2" height="2"></rect>
            <rect x="55" y="11" width="2" height="2"></rect>
            <rect x="51" y="11" width="2" height="2"></rect>
            <rect x="47" y="7" width="2" height="2"></rect>
            <rect x="19" y="3" width="2" height="2"></rect>
            <rect x="23" y="3" width="2" height="2"></rect>
        </g>
    </g>
    <g id="SvgjsG3630"
       transform="matrix(3.3711953163146973, 0, 0, 3.3711953163146973, 98.48963165283205, 1.3827686309814453)"
       fill="#232931">
        <path d="M2.3926 17.3633 q-0.87890625 -1.46484375 -1.0546875 -2.880859375 q0 -10.16601563 0 -10.14648438 l1.3672 0 l0 5.9766 q0.869140625 -1.064453125 1.943359375 -1.586914063 t2.3535 -0.52246 q2.265625 0 3.876953125 1.650390625 t1.6113 4.0039 q0 2.314453125 -1.62109375 3.955078125 t-3.9063 1.6406 q-1.30859375 0 -2.456054688 -0.5029296875 t-2.1143 -1.5869 z M6.8457 18.1348 q1.162109375 0 2.133789063 -0.5712890625 t1.5479 -1.5869 t0.57617 -2.168 q0 -1.1328125 -0.5810546875 -2.172851563 t-1.5625 -1.6113 t-2.0947 -0.57129 q-1.1328125 0 -2.1484375 0.5712890625 t-1.5625 1.5527 t-0.54688 2.1924 q0 1.865234375 1.23046875 3.115234375 t3.0078 1.25 z M20.966803125 4.686999999999999 l1.6699 0.0097656 l-6.4355 9.8926 l4.9609 0 l-0.0097656 -3.3691 l1.4453 -0.0097656 l0 3.418 l1.7578 0 l0 1.3867 l-1.7578 0 l0 3.3691 l-1.4453 0 l0 -3.3691 l-6.9238 0 l0.0097656 -1.416 z M25.8887125 14.541 l0 -1.2891 q0.15625 -0.966796875 0.44921875 -1.572265625 q0.68359375 -1.6796875 1.8359375 -2.4609375 t1.9141 -0.78125 q0.56640625 0 1.2109375 0.37109375 l-0.71289 1.1523 q-0.908203125 -0.33203125 -1.801757813 0.537109375 t-1.2354 1.8945 q-0.25390625 0.908203125 -0.25390625 3.408203125 l0 3.623 l-1.4063 0 l0 -4.8828 z M36.3281 17.9297 q-1.015625 0.546875 -1.9921875 0.087890625 q-1.19140625 -0.908203125 -1.1328125 -2.587890625 l0 -4.5313 l2.5391 0 l0 -1.1816 l-2.5488 0 l0 -5.1758 l-1.3867 0 l0 11.123 q-0.01953125 1.171875 0.537109375 2.1484375 q0.91796875 1.552734375 2.5 1.640625 q0.83984375 0.029296875 1.9140625 -0.380859375 q-0.166015625 -0.41015625 -0.4296875 -1.142578125 z M40.458975 17.0215 q0.498046875 0 0.8544921875 0.3564453125 t0.35645 0.86426 q0 0.498046875 -0.3564453125 0.8544921875 t-0.85449 0.35645 q-0.5078125 0 -0.859375 -0.3564453125 t-0.35156 -0.85449 q0 -0.5078125 0.3515625 -0.8642578125 t0.85938 -0.35645 z M54.414515625 17.3633 q0.87890625 -1.46484375 1.0546875 -2.880859375 q0 -10.16601563 0 -10.14648438 l-1.3672 0 l0 5.9766 q-0.869140625 -1.064453125 -1.943359375 -1.586914063 t-2.3535 -0.52246 q-2.265625 0 -3.876953125 1.650390625 t-1.6113 4.0039 q0 2.314453125 1.62109375 3.955078125 t3.9063 1.6406 q1.30859375 0 2.456054688 -0.5029296875 t2.1143 -1.5869 z M49.960915625 18.1348 q-1.162109375 0 -2.133789063 -0.5712890625 t-1.5479 -1.5869 t-0.57617 -2.168 q0 -1.1328125 0.5810546875 -2.172851563 t1.5625 -1.6113 t2.0947 -0.57129 q1.1328125 0 2.1484375 0.5712890625 t1.5625 1.5527 t0.54688 2.1924 q0 1.865234375 -1.23046875 3.115234375 t-3.0078 1.25 z M67.3048125 15.6348 l1.1523 0.61523 q-0.556640625 1.123046875 -1.30859375 1.806640625 t-1.6895 1.04 t-2.1191 0.35645 q-2.6171875 0 -4.091796875 -1.713867188 t-1.4746 -3.8721 q0 -2.041015625 1.25 -3.6328125 q1.58203125 -2.03125 4.248046875 -2.03125 q2.724609375 0 4.365234375 2.080078125 q1.162109375 1.46484375 1.171875 3.65234375 l-9.6191 0 q0.0390625 1.875 1.19140625 3.071289063 t2.8418 1.1963 q0.8203125 0 1.591796875 -0.2880859375 t1.3135 -0.75684 t1.1768 -1.5234 z M67.3048125 12.7539 q-0.2734375 -1.103515625 -0.80078125 -1.762695313 t-1.3965 -1.0645 t-1.8262 -0.40527 q-1.572265625 0 -2.705078125 1.015625 q-0.8203125 0.7421875 -1.240234375 2.216796875 l7.9688 0 z M70.36133 8.75 l1.4648 0 l3.584 7.793 l3.5547 -7.793 l1.4746 0 l-4.9023 10.713 l-0.24414 0 z"></path>
    </g>
</svg>
